<?xml version="1.0" encoding="utf-8"?>
<!-- Generator: Adobe Illustrator 21.0.2, SVG Export Plug-In . SVG Version: 6.00 Build 0)  -->
<svg version="1.1" id="图层_1" xmlns="http://www.w3.org/2000/svg" xmlns:xlink="http://www.w3.org/1999/xlink" x="0px" y="0px"
	 viewBox="0 0 283.5 141.7" style="enable-background:new 0 0 283.5 141.7;" xml:space="preserve">
<style type="text/css">
	.st0{fill:#ECEFF1;}
</style>
<g>
	<path class="st0" d="M17.1,98.8h-6.6V42.6h6.6V98.8z"/>
	<path class="st0" d="M77.3,42.6v57.1h-2.4L39.2,56.6v42.2h-6.6V41.7h2.4l35.7,43.2V42.6H77.3z"/>
	<path class="st0" d="M119.3,44.3c3.1,1.8,5.5,4.1,7.4,6.9l-4.9,3.7c-3.1-4.7-7.4-7.1-12.8-7.1c-2.8,0-5.1,0.7-7.1,2.1
		c-1.9,1.4-2.9,3.4-2.9,6c0,1.2,0.2,2.3,0.6,3.2c0.4,0.9,1.1,1.8,2.1,2.6c1,0.8,1.9,1.4,2.7,1.8c0.8,0.4,2,1,3.7,1.8l6.2,3
		c4.4,2.1,7.7,4.3,9.9,6.7c2.2,2.4,3.2,5.4,3.2,8.9c0,4.7-1.7,8.4-5.1,11.3c-3.4,2.9-7.7,4.3-13,4.3c-4.4,0-8.4-1.1-12-3.2
		c-3.6-2.2-6.5-5.1-8.7-8.8l4.9-3.7c4.2,6.4,9.4,9.6,15.7,9.6c3.3,0,6.1-0.9,8.2-2.6c2.1-1.7,3.1-4,3.1-6.8c0-2.4-0.7-4.2-2.2-5.5
		c-1.4-1.3-3.8-2.8-7.2-4.3l-6.3-3c-4-1.9-7.1-4-9.3-6.3c-2.2-2.3-3.4-5.2-3.4-8.8c0-4.4,1.6-7.9,4.9-10.6c3.3-2.7,7.3-4,12-4
		C112.8,41.7,116.2,42.6,119.3,44.3z"/>
	<path class="st0" d="M179.2,50.4c5.5,5.2,8.3,11.9,8.3,20.2c0,8.2-2.8,15-8.3,20.3c-5.5,5.3-12.9,7.9-22.3,7.9h-16.7V42.6h16.7
		C166.3,42.6,173.7,45.2,179.2,50.4z M146.9,48.6v44.3h10c7.3,0,13.1-2.1,17.4-6.3c4.3-4.2,6.4-9.5,6.4-16c0-6.6-2.1-11.9-6.3-16
		c-4.2-4.1-10-6.1-17.4-6.1H146.9z"/>
	<path class="st0" d="M205.9,98.8h-6.6V42.6h6.6V98.8z"/>
	<path class="st0" d="M273,41.7v57.1h-6.6V58.5l-18,24.4H246l-18-24.5v40.4h-6.6V41.7h2.4l23.4,32.5l23.6-32.5H273z"/>
</g>
</svg>
