<?xml version="1.0" encoding="utf-8"?>
<!-- Generator: Adobe Illustrator 21.0.2, SVG Export Plug-In . SVG Version: 6.00 Build 0)  -->
<svg version="1.1" id="图层_1" xmlns="http://www.w3.org/2000/svg" xmlns:xlink="http://www.w3.org/1999/xlink" x="0px" y="0px"
	 viewBox="0 0 425.2 141.7" style="enable-background:new 0 0 425.2 141.7;" xml:space="preserve">
<style type="text/css">
	.st0{clip-path:url(#SVGID_2_);fill:#90A4AE;}
	.st1{clip-path:url(#SVGID_2_);fill:#B0BEC5;}
	.st2{fill:#ECEFF1;}
</style>
<g>
	<g>
		<defs>
			<rect id="SVGID_1_" x="29" width="141.7" height="141.7"/>
		</defs>
		<clipPath id="SVGID_2_">
			<use xlink:href="#SVGID_1_"  style="overflow:visible;"/>
		</clipPath>
		<polygon class="st0" points="78.6,109.1 64.4,98.1 64.4,43.7 78.6,32.6 		"/>
		<polygon class="st1" points="121.1,57.8 78.6,46.8 78.6,32.6 135.3,46.8 		"/>
		<polygon class="st1" points="121.1,83.9 78.6,95 78.6,109.1 135.3,95 		"/>
		<polygon class="st0" points="135.3,95 121.1,83.9 121.1,57.8 135.3,46.8 		"/>
	</g>
</g>
<g>
	<path class="st2" d="M180.9,88.5h-4.7V48.9h4.7V88.5z"/>
	<path class="st2" d="M223.3,48.9v40.3h-1.7l-25.2-30.4v29.8h-4.7V48.2h1.7l25.2,30.5V48.9H223.3z"/>
	<path class="st2" d="M252.9,50.1c2.2,1.2,3.9,2.9,5.2,4.9l-3.4,2.6c-2.2-3.3-5.2-5-9.1-5c-2,0-3.6,0.5-5,1.5c-1.4,1-2,2.4-2,4.3
		c0,0.9,0.1,1.6,0.4,2.3s0.8,1.2,1.5,1.8c0.7,0.6,1.3,1,1.9,1.3c0.6,0.3,1.4,0.7,2.6,1.3l4.4,2.1c3.1,1.5,5.4,3.1,7,4.7
		c1.5,1.7,2.3,3.8,2.3,6.3c0,3.3-1.2,5.9-3.6,8c-2.4,2-5.5,3.1-9.2,3.1c-3.1,0-5.9-0.8-8.4-2.3c-2.5-1.5-4.6-3.6-6.1-6.2l3.5-2.6
		c3,4.5,6.6,6.8,11,6.8c2.4,0,4.3-0.6,5.8-1.8c1.5-1.2,2.2-2.8,2.2-4.8c0-1.7-0.5-3-1.5-3.9c-1-0.9-2.7-1.9-5.1-3.1l-4.4-2.1
		c-2.8-1.4-5-2.8-6.6-4.4c-1.6-1.6-2.4-3.7-2.4-6.2c0-3.1,1.2-5.6,3.5-7.5c2.3-1.9,5.1-2.8,8.5-2.8
		C248.3,48.2,250.7,48.9,252.9,50.1z"/>
	<path class="st2" d="M295.2,54.4c3.9,3.7,5.8,8.4,5.8,14.2c0,5.8-1.9,10.6-5.8,14.3c-3.9,3.7-9.1,5.6-15.7,5.6h-11.8V48.9h11.8
		C286,48.9,291.3,50.7,295.2,54.4z M272.4,53.1v31.2h7c5.2,0,9.2-1.5,12.2-4.4s4.5-6.7,4.5-11.3c0-4.6-1.5-8.4-4.5-11.2
		s-7.1-4.3-12.3-4.3H272.4z"/>
	<path class="st2" d="M314,88.5h-4.7V48.9h4.7V88.5z"/>
	<path class="st2" d="M361.3,48.2v40.3h-4.7V60.1l-12.7,17.2h-1.7L329.5,60v28.5h-4.7V48.2h1.7L343,71.2l16.6-22.9H361.3z"/>
</g>
</svg>
