{"asset":{"version":"2.0","generator":"Babylon2Gltf2017","copyright":"2017 (c) BabylonJS"},"scene":0,"scenes":[{"nodes":[4]}],"nodes":[{"mesh":0,"translation":[-3.96121979,12.6524429,-48.4520569],"rotation":[0.0,-0.5372994,0.0,-0.8433916],"scale":[1.0,1.0,1.0],"name":"object_11"},{"translation":[5.83117945E-08,12.7151346,1.33401775],"rotation":[0.49999994,-0.5,-0.50000006,-0.49999994],"scale":[1.0,1.0,1.0],"name":"Spot001.Target"},{"translation":[0.0,0.0,0.0],"rotation":[0.0,0.0,0.0,-1.0],"scale":[1.0,1.0,1.0],"name":"PhysCamera001.Target"},{"camera":0,"translation":[49.7509956,203.5318,-276.024658],"rotation":[0.498458654,0.0679476,0.03922957,-0.863355756],"scale":[1.0,1.0,1.0],"name":"PhysCamera001"},{"children":[0,1,2,3],"translation":[0.0,0.0,0.0],"rotation":[0.0,1.0,0.0,-4.371139E-08],"scale":[1.0,1.0,-1.0],"name":"root"}],"cameras":[{"perspective":{"yfov":0.6024207,"zfar":10000.0,"znear":0.1},"type":"perspective","name":"PhysCamera001"}],"meshes":[{"primitives":[{"attributes":{"POSITION":1,"NORMAL":2,"TEXCOORD_0":3},"indices":0,"mode":4,"material":0},{"attributes":{"POSITION":5,"NORMAL":6,"TEXCOORD_0":7},"indices":4,"mode":4,"material":1},{"attributes":{"POSITION":9,"NORMAL":10,"TEXCOORD_0":11},"indices":8,"mode":4,"material":2}],"name":"object_11"}],"accessors":[{"bufferView":0,"componentType":5123,"count":11961,"type":"SCALAR","name":"accessorIndices"},{"bufferView":1,"componentType":5126,"count":11961,"max":[-15.3295,83.4146,55.7662],"min":[-57.896,-12.6579,-4.2995],"type":"VEC3","name":"accessorPositions"},{"bufferView":1,"byteOffset":143532,"componentType":5126,"count":11961,"type":"VEC3","name":"accessorNormals"},{"bufferView":2,"componentType":5126,"count":11961,"type":"VEC2","name":"accessorUVs"},{"bufferView":0,"byteOffset":23924,"componentType":5123,"count":7593,"type":"SCALAR","name":"accessorIndices"},{"bufferView":1,"byteOffset":287064,"componentType":5126,"count":7593,"max":[-49.3021,84.9626,39.025],"min":[-58.5996,80.3082,29.7275],"type":"VEC3","name":"accessorPositions"},{"bufferView":1,"byteOffset":378180,"componentType":5126,"count":7593,"type":"VEC3","name":"accessorNormals"},{"bufferView":2,"byteOffset":95688,"componentType":5126,"count":7593,"type":"VEC2","name":"accessorUVs"},{"bufferView":0,"byteOffset":39112,"componentType":5123,"count":2436,"type":"SCALAR","name":"accessorIndices"},{"bufferView":1,"byteOffset":469296,"componentType":5126,"count":2436,"max":[-12.1844,80.3155,58.5365],"min":[-59.2157,-12.6579,-7.4445],"type":"VEC3","name":"accessorPositions"},{"bufferView":1,"byteOffset":498528,"componentType":5126,"count":2436,"type":"VEC3","name":"accessorNormals"},{"bufferView":2,"byteOffset":156432,"componentType":5126,"count":2436,"type":"VEC2","name":"accessorUVs"}],"bufferViews":[{"buffer":0,"byteLength":43984,"name":"bufferViewScalar"},{"buffer":0,"byteOffset":43984,"byteLength":527760,"byteStride":12,"name":"bufferViewFloatVec3"},{"buffer":0,"byteOffset":571744,"byteLength":175920,"byteStride":8,"name":"bufferViewFloatVec2"}],"buffers":[{"uri":"model.bin","byteLength":747664}],"materials":[{"pbrMetallicRoughness":{"baseColorFactor":[1.0,1.0,1.0,1.0],"metallicFactor":0.295833379,"roughnessFactor":0.91},"emissiveFactor":[0.0,0.0,0.0],"name":"Material #4"},{"pbrMetallicRoughness":{"baseColorFactor":[1.0,0.0612745173,0.0612745173,1.0],"metallicFactor":0.0,"roughnessFactor":0.9},"emissiveFactor":[0.0,0.0,0.0],"name":"Material #2"},{"pbrMetallicRoughness":{"baseColorFactor":[1.0,1.0,1.0,0.52],"metallicFactor":0.5489584,"roughnessFactor":0.37},"emissiveFactor":[0.0,0.0,0.0],"alphaMode":"BLEND","name":"Material #3"}]}