{"asset":{"version":"2.0","generator":"Babylon2Gltf2017","copyright":"2017 (c) BabylonJS"},"scene":0,"scenes":[{"nodes":[1]}],"nodes":[{"mesh":0,"translation":[0.0,2.70883846,-1.18407087E-07],"rotation":[0.7071068,0.0,0.0,-0.7071067],"scale":[9.755875,9.755875,9.755875],"name":"Obj3d66-517827-2-881"},{"children":[0],"translation":[0.0,0.0,0.0],"rotation":[0.0,1.0,0.0,-4.371139E-08],"scale":[1.0,1.0,-1.0],"name":"root"}],"meshes":[{"primitives":[{"attributes":{"POSITION":1,"NORMAL":2,"TEXCOORD_0":3},"indices":0,"mode":4,"material":0},{"attributes":{"POSITION":5,"NORMAL":6,"TEXCOORD_0":7},"indices":4,"mode":4,"material":1}],"name":"Obj3d66-517827-2-881"}],"accessors":[{"bufferView":0,"componentType":5123,"count":45180,"type":"SCALAR","name":"accessorIndices"},{"bufferView":1,"componentType":5126,"count":7868,"max":[1.25667536,0.29773134,2.65628242],"min":[-1.25667536,-0.0153969191,-2.65628171],"type":"VEC3","name":"accessorPositions"},{"bufferView":1,"byteOffset":94416,"componentType":5126,"count":7868,"type":"VEC3","name":"accessorNormals"},{"bufferView":2,"componentType":5126,"count":7868,"type":"VEC2","name":"accessorUVs"},{"bufferView":0,"byteOffset":90360,"componentType":5123,"count":218502,"type":"SCALAR","name":"accessorIndices"},{"bufferView":1,"byteOffset":188832,"componentType":5126,"count":37975,"max":[1.33195,0.278487921,2.713643],"min":[-1.33008444,-0.0177036468,-2.714104],"type":"VEC3","name":"accessorPositions"},{"bufferView":1,"byteOffset":644532,"componentType":5126,"count":37975,"type":"VEC3","name":"accessorNormals"},{"bufferView":2,"byteOffset":62944,"componentType":5126,"count":37975,"type":"VEC2","name":"accessorUVs"}],"bufferViews":[{"buffer":0,"byteLength":527364,"name":"bufferViewScalar"},{"buffer":0,"byteOffset":527364,"byteLength":1100232,"byteStride":12,"name":"bufferViewFloatVec3"},{"buffer":0,"byteOffset":1627596,"byteLength":366744,"byteStride":8,"name":"bufferViewFloatVec2"}],"buffers":[{"uri":"model.bin","byteLength":1994340}],"materials":[{"pbrMetallicRoughness":{"baseColorFactor":[1.0,1.0,1.0,1.0],"metallicFactor":0.9999995,"roughnessFactor":0.0},"emissiveFactor":[0.0,0.0,0.0],"name":"Material #79"},{"pbrMetallicRoughness":{"baseColorFactor":[1.0,1.0,1.0,1.0],"metallicFactor":0.4833334,"roughnessFactor":0.51},"emissiveFactor":[0.0,0.0,0.0],"name":"Material #80"}]}