<svg xmlns="http://www.w3.org/2000/svg" xmlns:xlink="http://www.w3.org/1999/xlink" viewBox="0 0 141.73 141.73"><defs><style>.cls-1{fill:url(#未命名的渐变_3);}.cls-2{fill:#fff;}</style><linearGradient id="未命名的渐变_3" x1="71" y1="21" x2="71" y2="121" gradientUnits="userSpaceOnUse"><stop offset="0" stop-color="#90caf9"/><stop offset="1" stop-color="#1e88e5"/></linearGradient></defs><title>画板 1</title><g id="图层_1" data-name="图层 1"><circle class="cls-1" cx="71" cy="71" r="50"/></g><g id="图层_2" data-name="图层 2"><path class="cls-2" d="M89.32,52.19Q97,59.44,97,71T89.32,89.83q-7.68,7.36-20.74,7.36H53.07V44.95H68.58Q81.65,44.95,89.32,52.19Zm-30.08-1.7V91.65H68.5q10.21,0,16.15-5.82A19.89,19.89,0,0,0,90.59,71q0-9.18-5.9-14.84T68.5,50.49Z"/><polygon class="cls-2" points="86 91.21 78.89 78.9 93.11 78.9 86 91.21"/><polygon class="cls-2" points="67.16 63.05 54.85 70.16 54.85 55.95 67.16 63.05"/></g></svg>